<svg xmlns="http://www.w3.org/2000/svg" viewBox="0 0 1455.49 544.85"><defs><style>.cls-1,.cls-25{fill:none;}.cls-1,.cls-20,.cls-25,.cls-7{stroke:#fff;}.cls-1,.cls-2,.cls-20,.cls-25,.cls-26,.cls-7{stroke-miterlimit:10;}.cls-1{stroke-width:4px;}.cls-2{font-size:45px;font-family:Montserrat-Light, Montserrat;font-weight:300;}.cls-2,.cls-26{fill:#917162;stroke:#917162;}.cls-3{letter-spacing:-0.01em;}.cls-4{letter-spacing:-0.02em;}.cls-5{letter-spacing:0em;}.cls-6{font-size:30px;}.cls-20,.cls-6{fill:#fff;font-family:Gibson-Regular, Gibson;}.cls-8{letter-spacing:-0.02em;}.cls-9{letter-spacing:-0.02em;}.cls-10{letter-spacing:-0.05em;}.cls-11{letter-spacing:-0.01em;}.cls-12{letter-spacing:0em;}.cls-13{letter-spacing:-0.01em;}.cls-14{letter-spacing:0em;}.cls-15{letter-spacing:-0.02em;}.cls-16{letter-spacing:-0.01em;}.cls-17{letter-spacing:-0.01em;}.cls-18{letter-spacing:0em;}.cls-19{letter-spacing:-0.04em;}.cls-20{font-size:28px;}.cls-21{letter-spacing:-0.01em;}.cls-22{letter-spacing:-0.02em;}.cls-23{letter-spacing:0em;}.cls-24{letter-spacing:-0.03em;}.cls-25{stroke-width:3px;}.cls-26{stroke-width:2px;opacity:0.61;}.cls-27{letter-spacing:-0.03em;}</style></defs><title>logo-white-camel</title><g id="Layer_2" data-name="Layer 2"><g id="Layer_1-2" data-name="Layer 1"><line class="cls-1" x1="8.48" y1="295" x2="1455.48" y2="298"/><text class="cls-2" transform="translate(0.5 370.83)"><tspan class="cls-3">E</tspan><tspan x="29.7" y="0">ducation</tspan></text><text class="cls-2" transform="translate(870.43 38.75)"><tspan class="cls-4">E</tspan><tspan x="29.34" y="0">xpe</tspan><tspan class="cls-3" x="109.93" y="0">r</tspan><tspan x="127.26" y="0">ie</tspan><tspan class="cls-5" x="165.87" y="0">n</tspan><tspan class="cls-3" x="196.2" y="0">c</tspan><tspan x="220.77" y="0">e</tspan></text><text class="cls-6" transform="translate(8.33 447.25) scale(0.8 1)"><tspan class="cls-7">Kno<tspan class="cls-8" x="50.73" y="0">r</tspan><tspan x="60.33" y="0">d</tspan></tspan><tspan class="cls-9" x="0" y="35">K</tspan><tspan x="16.62" y="35">gs. </tspan><tspan class="cls-10" x="61.83" y="35">L</tspan><tspan x="73.11" y="35" xml:space="preserve">yngby   Jun 09 - Dec 10</tspan></text><text class="cls-6" transform="translate(322.56 447.25) scale(0.8 1)"><tspan class="cls-7"><tspan class="cls-11">C</tspan><tspan class="cls-12" x="19.65" y="0">openhagen Busine</tspan><tspan class="cls-13" x="259.1" y="0">s</tspan><tspan x="271.23" y="0">s </tspan><tspan class="cls-9" x="289.61" y="0">A</tspan><tspan class="cls-14" x="308.36" y="0">cade</tspan><tspan class="cls-11" x="371.15" y="0">m</tspan><tspan x="395.33" y="0">y</tspan></tspan><tspan class="cls-9" x="0" y="35">K</tspan><tspan x="16.62" y="35">gs. </tspan><tspan class="cls-10" x="61.83" y="35">L</tspan><tspan x="73.11" y="35" xml:space="preserve">yngby    </tspan><tspan class="cls-11" x="177.66" y="35">A</tspan><tspan class="cls-14" x="196.86" y="35">ug 18 - N</tspan><tspan class="cls-15" x="310.25" y="35">o</tspan><tspan x="326.93" y="35">w</tspan></text><text class="cls-6" transform="matrix(0.8, -0.01, 0.01, 1, 870.65, 98.67)"><tspan class="cls-7">St<tspan class="cls-16" x="25.35" y="0">r</tspan><tspan x="34.95" y="0">om S</tspan><tspan class="cls-17" x="98.55" y="0">t</tspan><tspan class="cls-18" x="107.58" y="0">o</tspan><tspan class="cls-16" x="124.71" y="0">r</tspan><tspan x="134.31" y="0">e</tspan></tspan><tspan x="0" y="35" xml:space="preserve">Hellerup    Jun </tspan><tspan class="cls-19" x="181.02" y="35">0</tspan><tspan x="197.4" y="35">7 - Mar 12</tspan></text><text class="cls-20" transform="translate(870.33 187.05)">S<tspan class="cls-21" x="14.95" y="0">t</tspan><tspan x="23.38" y="0">o</tspan><tspan class="cls-22" x="39.37" y="0">r</tspan><tspan class="cls-23" x="48.33" y="0">emanager &amp; Bu</tspan><tspan class="cls-21" x="231.42" y="0">y</tspan><tspan x="244.55" y="0">er</tspan></text><text class="cls-6" transform="translate(1177.53 97.2) scale(0.8 1)"><tspan class="cls-7">O<tspan class="cls-24" x="23.58" y="0">-</tspan><tspan x="31.59" y="0">Z</tspan></tspan><tspan class="cls-24" x="0" y="35">K</tspan><tspan x="16.62" y="35">øbenh</tspan><tspan class="cls-11" x="100.2" y="35">a</tspan><tspan x="114.66" y="35" xml:space="preserve">vn    </tspan><tspan class="cls-8" x="169.23" y="35">F</tspan><tspan x="183.6" y="35">eb 13 - Jul 18</tspan></text><text class="cls-20" transform="translate(1177.19 187.05)">S<tspan class="cls-21" x="14.95" y="0">t</tspan><tspan x="23.38" y="0">o</tspan><tspan class="cls-22" x="39.37" y="0">r</tspan><tspan class="cls-23" x="48.33" y="0">emanager &amp; Bu</tspan><tspan class="cls-21" x="231.42" y="0">y</tspan><tspan x="244.55" y="0">er</tspan></text><line class="cls-25" x1="118.09" y1="296.98" x2="160.01" y2="296.35"/><polygon class="cls-25" points="125.07 296.87 118.5 310.48 111.69 297 125.07 296.87"/><line class="cls-25" x1="445.03" y1="298.98" x2="486.96" y2="298.35"/><polygon class="cls-25" points="452.01 298.87 445.45 312.48 438.64 299 452.01 298.87"/><line class="cls-25" x1="958.64" y1="273.24" x2="958.96" y2="296.86"/><polygon class="cls-25" points="951.66 273.42 958.09 259.74 965.04 273.16 951.66 273.42"/><line class="cls-25" x1="1285.68" y1="272.24" x2="1286" y2="295.86"/><polygon class="cls-25" points="1278.7 272.42 1285.12 258.74 1292.08 272.16 1278.7 272.42"/><line class="cls-26" x1="870.48" y1="105" x2="1129.95" y2="105.37"/><line class="cls-26" x1="1177.48" y1="103" x2="1448.48" y2="105"/><line class="cls-26" x1="8.8" y1="455.16" x2="298.48" y2="455"/><line class="cls-26" x1="323.03" y1="457.16" x2="648.48" y2="457"/><text/><text class="cls-20" transform="translate(14.33 538.05)">Mer<tspan class="cls-27" x="48.1" y="0">k</tspan><tspan x="61.04" y="0">onom</tspan></text><text class="cls-20" transform="translate(322.33 538.05)">Multimedia Design</text></g></g></svg>