<svg xmlns="http://www.w3.org/2000/svg" viewBox="0 0 57 57.21"><defs><style>.cls-1,.cls-2{fill:none;}.cls-1{stroke:#917162;}.cls-1,.cls-2,.cls-3{stroke-miterlimit:10;}.cls-1,.cls-3{stroke-width:3px;}.cls-2,.cls-3{stroke:#fff;}.cls-2{stroke-width:2px;}.cls-3{fill:#fff;}</style></defs><title>Asset 1</title><g id="Layer_2" data-name="Layer 2"><g id="Layer_1-2" data-name="Layer 1"><rect class="cls-1" x="1.5" y="1.5" width="54" height="54.21" rx="4.77"/><rect class="cls-2" x="9.76" y="15.52" width="37.49" height="26.17"/><polyline class="cls-2" points="47.24 15.52 28.5 28.61 9.76 15.52"/><path class="cls-3" d="M48.94,3.62H8.06A4.36,4.36,0,0,0,3.71,8V49.05a4.36,4.36,0,0,0,4.35,4.34H48.94a4.36,4.36,0,0,0,4.35-4.34V8A4.36,4.36,0,0,0,48.94,3.62ZM44.56,40.25H12.44a.63.63,0,0,1-.63-.63v-22a.64.64,0,0,1,.63-.64H44.56a.64.64,0,0,1,.63.64v22A.63.63,0,0,1,44.56,40.25Z"/></g></g></svg>