<svg xmlns="http://www.w3.org/2000/svg" viewBox="0 0 821.37 326.2"><defs><style>.cls-1,.cls-2,.cls-5,.cls-7,.cls-9{fill:none;}.cls-1,.cls-10,.cls-2,.cls-7,.cls-9{stroke:#fff;}.cls-1,.cls-10,.cls-19,.cls-2,.cls-5,.cls-7,.cls-9{stroke-miterlimit:10;}.cls-1{stroke-width:4px;}.cls-2{stroke-width:3px;}.cls-3,.cls-5,.cls-6,.cls-7,.cls-8,.cls-9{isolation:isolate;}.cls-10,.cls-26,.cls-4,.cls-6,.cls-8{fill:#fff;}.cls-19,.cls-5{stroke:#917162;}.cls-5{stroke-width:2px;opacity:0.61;}.cls-10,.cls-6,.cls-7,.cls-8,.cls-9{font-size:11px;}.cls-10,.cls-19,.cls-26,.cls-6,.cls-7,.cls-8,.cls-9{font-family:Montserrat-Light, Montserrat;font-weight:300;}.cls-6,.cls-7{letter-spacing:0.01em;}.cls-11{letter-spacing:-0.01em;}.cls-12{letter-spacing:0em;}.cls-13{letter-spacing:-0.01em;}.cls-14{letter-spacing:-0.02em;}.cls-15{letter-spacing:0em;}.cls-16{letter-spacing:-0.01em;}.cls-17{letter-spacing:-0.02em;}.cls-18{letter-spacing:-0.01em;}.cls-19{font-size:20px;fill:#917162;}.cls-20{letter-spacing:-0.02em;}.cls-21{letter-spacing:-0.03em;}.cls-22{letter-spacing:-0.01em;}.cls-23{letter-spacing:-0.02em;}.cls-24{letter-spacing:-0.01em;}.cls-25{letter-spacing:-0.02em;}.cls-26{font-size:10px;}.cls-27{letter-spacing:-0.02em;}.cls-28{letter-spacing:-0.01em;}.cls-29{letter-spacing:-0.02em;}</style></defs><title>cv-timeline</title><g id="Layer_2" data-name="Layer 2"><g id="Layer_1-2" data-name="Layer 1"><line class="cls-1" x1="2.33" y1="165.03" x2="808.95" y2="165.67"/><line class="cls-2" x1="63.55" y1="178.84" x2="63.51" y2="165.67"/><polygon class="cls-2" points="66.97 178.78 63.75 186.37 60.42 178.86 66.97 178.78"/><line class="cls-2" x1="233.97" y1="178.84" x2="233.93" y2="165.67"/><polygon class="cls-2" points="237.38 178.78 234.17 186.37 230.83 178.86 237.38 178.78"/><line class="cls-2" x1="580.25" y1="151.86" x2="580.41" y2="165.03"/><polygon class="cls-2" points="577.13 151.86 580.28 144.24 583.69 151.72 577.13 151.86"/><line class="cls-2" x1="741.84" y1="150.96" x2="742" y2="164.13"/><polygon class="cls-2" points="738.72 151.07 741.87 143.44 745.27 150.92 738.72 151.07"/><g class="cls-3"><path class="cls-4" d="M167.75,292.12l-1.57,1.61v1.84h-.51v-7h.51v4.5l4.37-4.5h.62l-3.08,3.18,3.29,3.82h-.62Z"/><path class="cls-4" d="M177,290.35V295a2.58,2.58,0,0,1-.63,1.92,2.63,2.63,0,0,1-1.9.62,4,4,0,0,1-1.36-.22,2.66,2.66,0,0,1-1-.61l.27-.38a2.67,2.67,0,0,0,.94.56,3.42,3.42,0,0,0,1.17.2,2.13,2.13,0,0,0,1.54-.5,2.09,2.09,0,0,0,.5-1.53v-.88a2.28,2.28,0,0,1-.89.88,2.61,2.61,0,0,1-1.28.31,2.7,2.7,0,0,1-1.33-.33,2.3,2.3,0,0,1-.93-.9,2.69,2.69,0,0,1,0-2.62,2.3,2.3,0,0,1,.93-.9,2.81,2.81,0,0,1,1.33-.32,2.69,2.69,0,0,1,1.3.32,2.2,2.2,0,0,1,.89.9v-1.18Zm-1.53,4.31a1.87,1.87,0,0,0,.76-.74,2.22,2.22,0,0,0,0-2.16,2,2,0,0,0-.76-.74,2.38,2.38,0,0,0-1.1-.26,2.35,2.35,0,0,0-1.1.26,2.07,2.07,0,0,0-.76.74,2.29,2.29,0,0,0,0,2.16,1.93,1.93,0,0,0,.76.74,2.24,2.24,0,0,0,1.1.27A2.27,2.27,0,0,0,175.47,294.66Z"/><path class="cls-4" d="M179.24,295.42a2.56,2.56,0,0,1-.89-.48l.23-.4a2.65,2.65,0,0,0,.82.45,3.15,3.15,0,0,0,1.06.18,2.1,2.1,0,0,0,1.16-.26.82.82,0,0,0,.38-.72.67.67,0,0,0-.21-.52,1.17,1.17,0,0,0-.5-.28c-.2-.06-.48-.12-.83-.19a5.89,5.89,0,0,1-1-.24,1.59,1.59,0,0,1-.65-.42,1.12,1.12,0,0,1-.27-.8,1.27,1.27,0,0,1,.51-1,2.34,2.34,0,0,1,1.47-.4,3.76,3.76,0,0,1,1,.14,2.58,2.58,0,0,1,.8.37l-.23.4a2.59,2.59,0,0,0-.73-.35,3,3,0,0,0-.84-.12,1.84,1.84,0,0,0-1.1.27.83.83,0,0,0-.37.71.7.7,0,0,0,.21.54,1.28,1.28,0,0,0,.51.29,6.77,6.77,0,0,0,.86.21,7.6,7.6,0,0,1,1,.23,1.6,1.6,0,0,1,.64.41,1.1,1.1,0,0,1,.26.77,1.23,1.23,0,0,1-.54,1,2.57,2.57,0,0,1-1.52.39A3.68,3.68,0,0,1,179.24,295.42Z"/><path class="cls-4" d="M183.54,295.48a.44.44,0,0,1,0-.6.42.42,0,0,1,.3-.12.4.4,0,0,1,.29.12.41.41,0,0,1,0,.6.37.37,0,0,1-.29.13A.39.39,0,0,1,183.54,295.48Z"/><path class="cls-4" d="M188.63,288.57h.51v6.54h4v.46h-4.54Z"/><path class="cls-4" d="M198.12,290.35l-2.68,5.93a2.27,2.27,0,0,1-.7,1,1.54,1.54,0,0,1-.93.29,1.91,1.91,0,0,1-.68-.12,1.4,1.4,0,0,1-.53-.35l.25-.38a1.31,1.31,0,0,0,1,.41,1,1,0,0,0,.65-.21,2,2,0,0,0,.5-.72l.28-.63-2.35-5.2h.53l2.09,4.67,2.09-4.67Z"/><path class="cls-4" d="M203.31,290.88a2.23,2.23,0,0,1,.57,1.64v3.05h-.5v-3a1.84,1.84,0,0,0-.45-1.34,1.62,1.62,0,0,0-1.24-.46,1.89,1.89,0,0,0-1.45.55,2,2,0,0,0-.53,1.48v2.78h-.5v-5.22h.48v1.13a2,2,0,0,1,.8-.86,2.47,2.47,0,0,1,1.27-.31A2.1,2.1,0,0,1,203.31,290.88Z"/><path class="cls-4" d="M210.65,290.35V295a2.58,2.58,0,0,1-.63,1.92,2.63,2.63,0,0,1-1.9.62,4,4,0,0,1-1.36-.22,2.66,2.66,0,0,1-1-.61l.27-.38a2.67,2.67,0,0,0,.94.56,3.42,3.42,0,0,0,1.17.2,2.13,2.13,0,0,0,1.54-.5,2.09,2.09,0,0,0,.5-1.53v-.88a2.28,2.28,0,0,1-.89.88,2.61,2.61,0,0,1-1.28.31,2.7,2.7,0,0,1-1.33-.33,2.3,2.3,0,0,1-.93-.9,2.69,2.69,0,0,1,0-2.62,2.3,2.3,0,0,1,.93-.9,2.81,2.81,0,0,1,1.33-.32,2.69,2.69,0,0,1,1.3.32,2.2,2.2,0,0,1,.89.9v-1.18Zm-1.53,4.31a1.87,1.87,0,0,0,.76-.74,2.22,2.22,0,0,0,0-2.16,2,2,0,0,0-.76-.74,2.38,2.38,0,0,0-1.1-.26,2.35,2.35,0,0,0-1.1.26,2.07,2.07,0,0,0-.76.74,2.3,2.3,0,0,0,0,2.16,1.93,1.93,0,0,0,.76.74,2.24,2.24,0,0,0,1.1.27A2.27,2.27,0,0,0,209.12,294.66Z"/><path class="cls-4" d="M216.71,290.64a2.44,2.44,0,0,1,.92.94A2.77,2.77,0,0,1,218,293a2.7,2.7,0,0,1-.34,1.37,2.44,2.44,0,0,1-.92.94,2.6,2.6,0,0,1-1.32.34,2.39,2.39,0,0,1-1.27-.34,2.23,2.23,0,0,1-.87-.93v1.23h-.48v-7.42h.5v3.39a2.18,2.18,0,0,1,.87-.91,2.5,2.5,0,0,1,1.25-.32A2.69,2.69,0,0,1,216.71,290.64Zm-.27,4.24a2,2,0,0,0,.75-.78,2.46,2.46,0,0,0,0-2.28,2,2,0,0,0-.75-.78,2.22,2.22,0,0,0-2.16,0,2.16,2.16,0,0,0-.75.78,2.54,2.54,0,0,0,0,2.28,2.16,2.16,0,0,0,.75.78,2.22,2.22,0,0,0,2.16,0Z"/><path class="cls-4" d="M223.56,290.35l-2.68,5.93a2.36,2.36,0,0,1-.7,1,1.54,1.54,0,0,1-.93.29,1.91,1.91,0,0,1-.68-.12,1.4,1.4,0,0,1-.53-.35l.25-.38a1.31,1.31,0,0,0,1,.41,1,1,0,0,0,.65-.21,2,2,0,0,0,.5-.72l.28-.63-2.35-5.2h.53L221,295l2.09-4.67Z"/><path class="cls-4" d="M231.71,293.6h-4.06l-.89,2h-.55l3.22-7h.51l3.22,7h-.55Zm-.19-.43-1.84-4-1.83,4Z"/><path class="cls-4" d="M238.74,290.35v5.22h-.48v-1.12a1.93,1.93,0,0,1-.77.85,2.23,2.23,0,0,1-1.2.31,2,2,0,0,1-2.18-2.21v-3h.5v3a1.84,1.84,0,0,0,.45,1.34,1.68,1.68,0,0,0,1.27.46,1.8,1.8,0,0,0,1.39-.55,2.06,2.06,0,0,0,.52-1.48v-2.78Z"/><path class="cls-4" d="M245.56,290.35V295a2.58,2.58,0,0,1-.63,1.92,2.63,2.63,0,0,1-1.9.62,4,4,0,0,1-1.36-.22,2.66,2.66,0,0,1-1-.61l.27-.38a2.67,2.67,0,0,0,.94.56,3.42,3.42,0,0,0,1.17.2,2.13,2.13,0,0,0,1.54-.5,2.09,2.09,0,0,0,.5-1.53v-.88a2.28,2.28,0,0,1-.89.88,2.61,2.61,0,0,1-1.28.31,2.7,2.7,0,0,1-1.33-.33,2.24,2.24,0,0,1-.93-.9,2.69,2.69,0,0,1,0-2.62,2.24,2.24,0,0,1,.93-.9,2.81,2.81,0,0,1,1.33-.32,2.69,2.69,0,0,1,1.3.32,2.2,2.2,0,0,1,.89.9v-1.18ZM244,294.66a1.87,1.87,0,0,0,.76-.74,2.22,2.22,0,0,0,0-2.16A2,2,0,0,0,244,291a2.38,2.38,0,0,0-1.1-.26,2.32,2.32,0,0,0-1.1.26,2.07,2.07,0,0,0-.76.74,2.29,2.29,0,0,0,0,2.16,1.93,1.93,0,0,0,.76.74,2.21,2.21,0,0,0,1.1.27A2.27,2.27,0,0,0,244,294.66Z"/><path class="cls-4" d="M251.5,288.57v7H251V289h-1.71v-.46Z"/><path class="cls-4" d="M258.13,292.55a1.63,1.63,0,0,1,.4,1.1,1.7,1.7,0,0,1-.71,1.44,3.24,3.24,0,0,1-1.95.53,3.19,3.19,0,0,1-1.94-.53,1.69,1.69,0,0,1-.7-1.44,1.63,1.63,0,0,1,.38-1.11,2.23,2.23,0,0,1,1.11-.63,1.86,1.86,0,0,1-.92-.6,1.48,1.48,0,0,1-.32-1,1.56,1.56,0,0,1,.65-1.33,3.38,3.38,0,0,1,3.49,0,1.57,1.57,0,0,1,.66,1.32,1.48,1.48,0,0,1-.33,1,2,2,0,0,1-.93.61A2.17,2.17,0,0,1,258.13,292.55Zm-.68,2.22a1.31,1.31,0,0,0,.57-1.12,1.29,1.29,0,0,0-.57-1.11,2.7,2.7,0,0,0-1.58-.41,2.66,2.66,0,0,0-1.57.41,1.28,1.28,0,0,0-.56,1.11,1.3,1.3,0,0,0,.56,1.12,2.62,2.62,0,0,0,1.57.41A2.7,2.7,0,0,0,257.45,294.77Zm-3-3.43a2.25,2.25,0,0,0,1.39.37,2.29,2.29,0,0,0,1.39-.37,1.15,1.15,0,0,0,.51-1,1.21,1.21,0,0,0-.52-1,2.76,2.76,0,0,0-2.76,0,1.27,1.27,0,0,0,0,2Z"/><path class="cls-4" d="M262.23,292.66h2.57v.45h-2.57Z"/><path class="cls-4" d="M274.91,288.57v7h-.42l-4.77-6.08v6.08h-.51v-7h.43l4.76,6.08v-6.08Z"/><path class="cls-4" d="M277.89,295.27a2.36,2.36,0,0,1-.93-.95,2.67,2.67,0,0,1-.34-1.36,2.73,2.73,0,0,1,.34-1.37,2.4,2.4,0,0,1,.93-.94,2.79,2.79,0,0,1,2.67,0,2.5,2.5,0,0,1,.94.94,2.84,2.84,0,0,1,.34,1.37,2.77,2.77,0,0,1-.34,1.36,2.45,2.45,0,0,1-.94.95,2.79,2.79,0,0,1-2.67,0Zm2.41-.39a2,2,0,0,0,.75-.78,2.46,2.46,0,0,0,0-2.28,2,2,0,0,0-.75-.78,2,2,0,0,0-1.07-.28,2.07,2.07,0,0,0-1.08.28,2,2,0,0,0-.75.78,2.54,2.54,0,0,0,0,2.28,2,2,0,0,0,.75.78,2.07,2.07,0,0,0,1.08.28A2,2,0,0,0,280.3,294.88Z"/><path class="cls-4" d="M290.7,290.35l-2,5.22h-.47L286.49,291l-1.77,4.53h-.46l-2-5.22h.48L284.5,295l1.78-4.66h.43l1.77,4.65,1.76-4.65Z"/><g class="cls-3"><path class="cls-4" d="M5,292.12l-1.57,1.61v1.84H3v-7h.51v4.5l4.37-4.5h.62l-3.08,3.18,3.29,3.82H8Z"/><path class="cls-4" d="M14.28,290.35V295a2.58,2.58,0,0,1-.63,1.92,2.62,2.62,0,0,1-1.9.62,4.08,4.08,0,0,1-1.36-.22,2.74,2.74,0,0,1-1-.61l.27-.38a2.77,2.77,0,0,0,.94.56,3.51,3.51,0,0,0,1.17.2,2.1,2.1,0,0,0,1.54-.5,2,2,0,0,0,.5-1.53v-.88a2.22,2.22,0,0,1-.89.88,2.58,2.58,0,0,1-1.28.31,2.69,2.69,0,0,1-1.32-.33,2.33,2.33,0,0,1-.94-.9,2.69,2.69,0,0,1,0-2.62,2.33,2.33,0,0,1,.94-.9,2.8,2.8,0,0,1,1.32-.32,2.66,2.66,0,0,1,1.3.32,2.09,2.09,0,0,1,.89.9v-1.18Zm-1.53,4.31a1.83,1.83,0,0,0,.77-.74,2.3,2.3,0,0,0,0-2.16,2,2,0,0,0-.77-.74,2.44,2.44,0,0,0-2.19,0,2,2,0,0,0-.76.74,2.22,2.22,0,0,0,0,2.16,1.87,1.87,0,0,0,.76.74,2.36,2.36,0,0,0,2.19,0Z"/><path class="cls-4" d="M16.52,295.42a2.65,2.65,0,0,1-.89-.48l.23-.4a2.71,2.71,0,0,0,.83.45,3.13,3.13,0,0,0,1,.18,2.11,2.11,0,0,0,1.17-.26.82.82,0,0,0,.37-.72.66.66,0,0,0-.2-.52,1.27,1.27,0,0,0-.51-.28c-.2-.06-.47-.12-.83-.19a6.42,6.42,0,0,1-1-.24,1.66,1.66,0,0,1-.65-.42,1.12,1.12,0,0,1-.27-.8,1.28,1.28,0,0,1,.52-1,2.31,2.31,0,0,1,1.46-.4,3.64,3.64,0,0,1,1,.14,2.38,2.38,0,0,1,.8.37l-.23.4a2.35,2.35,0,0,0-.73-.35,2.94,2.94,0,0,0-.84-.12,1.88,1.88,0,0,0-1.1.27.86.86,0,0,0-.37.71.7.7,0,0,0,.21.54,1.32,1.32,0,0,0,.52.29,6.55,6.55,0,0,0,.85.21,7.41,7.41,0,0,1,1,.23,1.5,1.5,0,0,1,.63.41,1.06,1.06,0,0,1,.26.77,1.23,1.23,0,0,1-.54,1,2.55,2.55,0,0,1-1.52.39A3.68,3.68,0,0,1,16.52,295.42Z"/><path class="cls-4" d="M20.83,295.48a.41.41,0,0,1,0-.6.4.4,0,0,1,.29-.12.42.42,0,0,1,.3.72.38.38,0,0,1-.3.13A.37.37,0,0,1,20.83,295.48Z"/><path class="cls-4" d="M25.91,288.57h.51v6.54h4v.46H25.91Z"/><path class="cls-4" d="M35.4,290.35l-2.68,5.93a2.35,2.35,0,0,1-.69,1,1.57,1.57,0,0,1-.94.29,1.85,1.85,0,0,1-.67-.12,1.53,1.53,0,0,1-.54-.35l.25-.38a1.32,1.32,0,0,0,1,.41,1,1,0,0,0,.65-.21,1.84,1.84,0,0,0,.5-.72l.28-.63-2.35-5.2h.53L32.8,295l2.09-4.67Z"/><path class="cls-4" d="M40.59,290.88a2.23,2.23,0,0,1,.57,1.64v3.05h-.5v-3a1.84,1.84,0,0,0-.44-1.34,1.65,1.65,0,0,0-1.25-.46,1.92,1.92,0,0,0-1.45.55,2.06,2.06,0,0,0-.53,1.48v2.78h-.5v-5.22H37v1.13a2,2,0,0,1,.81-.86,2.45,2.45,0,0,1,1.26-.31A2.08,2.08,0,0,1,40.59,290.88Z"/><path class="cls-4" d="M47.93,290.35V295a2.58,2.58,0,0,1-.63,1.92,2.62,2.62,0,0,1-1.9.62,4.08,4.08,0,0,1-1.36-.22,2.74,2.74,0,0,1-1-.61l.27-.38a2.77,2.77,0,0,0,.94.56,3.51,3.51,0,0,0,1.17.2,2.1,2.1,0,0,0,1.54-.5,2,2,0,0,0,.5-1.53v-.88a2.22,2.22,0,0,1-.89.88,2.58,2.58,0,0,1-1.28.31,2.69,2.69,0,0,1-1.32-.33,2.33,2.33,0,0,1-.94-.9,2.69,2.69,0,0,1,0-2.62,2.33,2.33,0,0,1,.94-.9,2.8,2.8,0,0,1,1.32-.32,2.66,2.66,0,0,1,1.3.32,2.09,2.09,0,0,1,.89.9v-1.18Zm-1.53,4.31a1.83,1.83,0,0,0,.77-.74,2.3,2.3,0,0,0,0-2.16,2,2,0,0,0-.77-.74,2.44,2.44,0,0,0-2.19,0,2,2,0,0,0-.76.74,2.22,2.22,0,0,0,0,2.16,1.87,1.87,0,0,0,.76.74,2.36,2.36,0,0,0,2.19,0Z"/><path class="cls-4" d="M54,290.64a2.4,2.4,0,0,1,.93.94,2.87,2.87,0,0,1,.33,1.38,2.8,2.8,0,0,1-.33,1.37,2.4,2.4,0,0,1-.93.94,2.55,2.55,0,0,1-1.32.34,2.38,2.38,0,0,1-1.26-.34,2.26,2.26,0,0,1-.88-.93v1.23h-.48v-7.42h.5v3.39a2.31,2.31,0,0,1,.87-.91,2.53,2.53,0,0,1,1.25-.32A2.64,2.64,0,0,1,54,290.64Zm-.27,4.24a2,2,0,0,0,.76-.78,2.54,2.54,0,0,0,0-2.28,2,2,0,0,0-.76-.78,2.07,2.07,0,0,0-1.08-.28,2,2,0,0,0-1.07.28,2,2,0,0,0-.75.78,2.46,2.46,0,0,0,0,2.28,2,2,0,0,0,.75.78,2,2,0,0,0,1.07.28A2.07,2.07,0,0,0,53.72,294.88Z"/><path class="cls-4" d="M60.84,290.35l-2.68,5.93a2.35,2.35,0,0,1-.69,1,1.59,1.59,0,0,1-.94.29,1.85,1.85,0,0,1-.67-.12,1.53,1.53,0,0,1-.54-.35l.25-.38a1.32,1.32,0,0,0,1,.41,1,1,0,0,0,.65-.21,1.84,1.84,0,0,0,.5-.72l.28-.63-2.35-5.2h.53L58.24,295l2.09-4.67Z"/><path class="cls-4" d="M64.23,295.35a2.08,2.08,0,0,1-.8-.73l.31-.34a2,2,0,0,0,.69.65,1.7,1.7,0,0,0,.86.23,1.31,1.31,0,0,0,1-.41,1.87,1.87,0,0,0,.34-1.24V289H64.1v-.46h3.09v4.94a2.28,2.28,0,0,1-.48,1.58,1.83,1.83,0,0,1-1.42.53A2.17,2.17,0,0,1,64.23,295.35Z"/><path class="cls-4" d="M74,290.35v5.22H73.5v-1.12a1.87,1.87,0,0,1-.77.85,2.23,2.23,0,0,1-1.2.31,2.19,2.19,0,0,1-1.6-.57,2.23,2.23,0,0,1-.58-1.64v-3h.5v3a1.84,1.84,0,0,0,.45,1.34,1.69,1.69,0,0,0,1.27.46,1.82,1.82,0,0,0,1.4-.55,2.1,2.1,0,0,0,.51-1.48v-2.78Z"/><path class="cls-4" d="M80.2,290.88a2.23,2.23,0,0,1,.57,1.64v3.05h-.5v-3a1.88,1.88,0,0,0-.44-1.34,1.65,1.65,0,0,0-1.25-.46,1.92,1.92,0,0,0-1.45.55,2.06,2.06,0,0,0-.53,1.48v2.78h-.5v-5.22h.48v1.13a2,2,0,0,1,.81-.86,2.43,2.43,0,0,1,1.26-.31A2.08,2.08,0,0,1,80.2,290.88Z"/><path class="cls-4" d="M86.21,295.18a2.8,2.8,0,0,1-1-1.23,5.22,5.22,0,0,1,0-3.76,2.83,2.83,0,0,1,1-1.24,2.41,2.41,0,0,1,1.42-.43,2.44,2.44,0,0,1,1.43.43,2.9,2.9,0,0,1,1,1.24A5.37,5.37,0,0,1,90,294a2.87,2.87,0,0,1-1,1.23,2.45,2.45,0,0,1-1.43.44A2.42,2.42,0,0,1,86.21,295.18Zm2.59-.4a2.29,2.29,0,0,0,.78-1.06,4.32,4.32,0,0,0,.28-1.65,4.41,4.41,0,0,0-.28-1.66,2.4,2.4,0,0,0-.78-1.06,2,2,0,0,0-1.17-.36,1.93,1.93,0,0,0-1.16.36,2.41,2.41,0,0,0-.79,1.06,4.61,4.61,0,0,0-.28,1.66,4.52,4.52,0,0,0,.28,1.65,2.3,2.3,0,0,0,.79,1.06,1.87,1.87,0,0,0,1.16.37A1.92,1.92,0,0,0,88.8,294.78Z"/><path class="cls-4" d="M95.67,289.44a4.13,4.13,0,0,1,.72,2.59,4.6,4.6,0,0,1-.38,2,2.71,2.71,0,0,1-1.09,1.22,3.19,3.19,0,0,1-1.64.41,3.07,3.07,0,0,1-1.59-.36l.21-.41a2.61,2.61,0,0,0,1.38.32,2.41,2.41,0,0,0,1.91-.79,3.33,3.33,0,0,0,.69-2.27,5.35,5.35,0,0,0-.06-.84,1.87,1.87,0,0,1-.81,1.06,2.67,2.67,0,0,1-1.42.38,2.77,2.77,0,0,1-1.22-.26,1.91,1.91,0,0,1-.83-.73,2.2,2.2,0,0,1,0-2.2,2,2,0,0,1,.83-.74,2.78,2.78,0,0,1,1.2-.26A2.52,2.52,0,0,1,95.67,289.44Zm-1,2.61a1.84,1.84,0,0,0,.69-.6,1.57,1.57,0,0,0,0-1.65,1.72,1.72,0,0,0-.69-.61A2.39,2.39,0,0,0,93.6,289a2,2,0,0,0-1.33.45,1.56,1.56,0,0,0-.51,1.21,1.52,1.52,0,0,0,.51,1.2,2,2,0,0,0,1.39.45A2.21,2.21,0,0,0,94.67,292.05Z"/><path class="cls-4" d="M100.13,292.66h2.57v.45h-2.57Z"/><path class="cls-4" d="M107.11,288.57h2.77a4.08,4.08,0,0,1,1.94.45,3.26,3.26,0,0,1,1.31,1.24,3.44,3.44,0,0,1,.47,1.81,3.41,3.41,0,0,1-.47,1.8,3.29,3.29,0,0,1-1.31,1.25,4.08,4.08,0,0,1-1.94.45h-2.77Zm2.73,6.54a3.6,3.6,0,0,0,1.71-.39,2.63,2.63,0,0,0,1.14-1.07,3.32,3.32,0,0,0,0-3.16,2.71,2.71,0,0,0-1.14-1.08,3.71,3.71,0,0,0-1.71-.38h-2.22v6.08Z"/><path class="cls-4" d="M119.62,293.08h-4.49a2.24,2.24,0,0,0,.31,1.08,2,2,0,0,0,.79.74,2.39,2.39,0,0,0,1.11.26,2.3,2.3,0,0,0,1-.19,1.76,1.76,0,0,0,.72-.54l.29.33a2.25,2.25,0,0,1-.85.63,3,3,0,0,1-2.51-.12,2.52,2.52,0,0,1-1-.94,2.71,2.71,0,0,1-.35-1.37,2.83,2.83,0,0,1,.33-1.37,2.37,2.37,0,0,1,.89-.94,2.43,2.43,0,0,1,1.28-.34,2.49,2.49,0,0,1,1.28.33,2.52,2.52,0,0,1,.89.94,2.87,2.87,0,0,1,.32,1.36ZM116.15,291a1.93,1.93,0,0,0-.7.69,2.3,2.3,0,0,0-.31,1h4a2.09,2.09,0,0,0-.3-1,2,2,0,0,0-.71-.69,1.92,1.92,0,0,0-1-.25A2.07,2.07,0,0,0,116.15,291Z"/><path class="cls-4" d="M121.89,295.27a2.45,2.45,0,0,1-.94-.95,2.77,2.77,0,0,1-.34-1.36,2.88,2.88,0,0,1,.34-1.38,2.5,2.5,0,0,1,.94-.94,2.79,2.79,0,0,1,1.36-.33,2.72,2.72,0,0,1,1.15.24,2.14,2.14,0,0,1,.83.72l-.37.27a1.78,1.78,0,0,0-.69-.59,2.13,2.13,0,0,0-.92-.19,2.2,2.2,0,0,0-1.09.27,2,2,0,0,0-.76.78,2.5,2.5,0,0,0,0,2.3,1.88,1.88,0,0,0,.76.77,2.11,2.11,0,0,0,1.09.28,2.14,2.14,0,0,0,.92-.2,1.75,1.75,0,0,0,.69-.58l.37.27a2,2,0,0,1-.83.71,2.58,2.58,0,0,1-1.15.25A2.69,2.69,0,0,1,121.89,295.27Z"/><path class="cls-4" d="M130.55,288.57v7H130V289h-1.71v-.46Z"/><path class="cls-4" d="M133.64,295.18a2.8,2.8,0,0,1-1-1.23,5.22,5.22,0,0,1,0-3.76,2.83,2.83,0,0,1,1-1.24,2.41,2.41,0,0,1,1.42-.43,2.46,2.46,0,0,1,1.43.43,2.9,2.9,0,0,1,1,1.24,5.37,5.37,0,0,1,0,3.76,2.87,2.87,0,0,1-1,1.23,2.47,2.47,0,0,1-1.43.44A2.42,2.42,0,0,1,133.64,295.18Zm2.59-.4a2.36,2.36,0,0,0,.78-1.06,4.32,4.32,0,0,0,.28-1.65,4.41,4.41,0,0,0-.28-1.66,2.47,2.47,0,0,0-.78-1.06,2,2,0,0,0-1.17-.36,1.93,1.93,0,0,0-1.16.36,2.41,2.41,0,0,0-.79,1.06,4.41,4.41,0,0,0-.28,1.66,4.32,4.32,0,0,0,.28,1.65,2.3,2.3,0,0,0,.79,1.06,1.87,1.87,0,0,0,1.16.37A1.92,1.92,0,0,0,136.23,294.78Z"/></g></g><line class="cls-5" x1="1.72" y1="279.98" x2="137.27" y2="279.9"/><line class="cls-5" x1="522.22" y1="70.71" x2="646.41" y2="70.61"/><line class="cls-5" x1="683.17" y1="74.15" x2="807.38" y2="74.02"/><g class="cls-3"><text class="cls-6" transform="translate(682.21 61.19) scale(0.85 1)">O</text><text class="cls-7" transform="translate(682.21 61.19) scale(0.85 1)">O</text><text class="cls-8" transform="translate(691.09 61.19) scale(0.85 1)">-Z</text><text class="cls-9" transform="translate(691.09 61.19) scale(0.85 1)">-Z</text></g><text class="cls-10" transform="translate(2.95 267.14)"><tspan class="cls-11">K</tspan><tspan class="cls-12" x="7.62" y="0">n</tspan><tspan x="15.04" y="0">o</tspan><tspan class="cls-13" x="21.86" y="0">r</tspan><tspan x="26.04" y="0">d</tspan></text><text class="cls-10" transform="translate(162.75 267.14)"><tspan class="cls-14">C</tspan><tspan x="7.61" y="0">openh</tspan><tspan class="cls-12" x="43.23" y="0">a</tspan><tspan x="49.65" y="0">gen Busi</tspan><tspan class="cls-12" x="97.71" y="0">n</tspan><tspan x="105.12" y="0">ess </tspan><tspan class="cls-15" x="125.03" y="0">A</tspan><tspan x="132.73" y="0">c</tspan><tspan class="cls-12" x="138.84" y="0">a</tspan><tspan x="145.26" y="0">de</tspan><tspan class="cls-11" x="159.25" y="0">m</tspan><tspan x="170.85" y="0">y</tspan></text><line class="cls-5" x1="161.89" y1="280.09" x2="360.5" y2="280"/><text class="cls-10" transform="translate(1.72 320.81)">Me<tspan class="cls-16" x="17.08" y="0">r</tspan><tspan class="cls-17" x="21.32" y="0">k</tspan><tspan x="27.56" y="0">o</tspan><tspan class="cls-12" x="34.38" y="0">n</tspan><tspan x="41.79" y="0">om</tspan></text><text class="cls-10" transform="translate(164.3 320.81)">Mu<tspan class="cls-18" x="17.88" y="0">l</tspan><tspan x="20.67" y="0">ti</tspan><tspan class="cls-12" x="27.92" y="0">m</tspan><tspan x="39.63" y="0">edia Design</tspan></text><text class="cls-19" transform="translate(0.5 223.17)">EDU<tspan class="cls-20" x="45.76" y="0">C</tspan><tspan class="cls-21" x="59.7" y="0">A</tspan><tspan x="73.1" y="0">TION</tspan></text><text class="cls-19" transform="translate(520.31 17.5)"><tspan class="cls-22">E</tspan><tspan class="cls-23" x="13.2" y="0">X</tspan><tspan class="cls-24" x="25.56" y="0">P</tspan><tspan x="39.66" y="0">ERIENCE</tspan></text><text class="cls-10" transform="translate(522.22 59.54)">St<tspan class="cls-13" x="11.08" y="0">r</tspan><tspan x="15.26" y="0">om S</tspan><tspan class="cls-25" x="43.31" y="0">t</tspan><tspan x="47.48" y="0">o</tspan><tspan class="cls-13" x="54.29" y="0">r</tspan><tspan x="58.48" y="0">e</tspan></text><text class="cls-26" transform="translate(521.43 88.62)">Hellerup Jun <tspan class="cls-22" x="66.15" y="0">0</tspan><tspan x="72.64" y="0">7 - Mar 12</tspan></text><text class="cls-26" transform="translate(683.44 88.62)"><tspan class="cls-27">K</tspan><tspan x="6.79" y="0">øbenh</tspan><tspan class="cls-28" x="39.17" y="0">a</tspan><tspan x="44.9" y="0">vn </tspan><tspan class="cls-20" x="59.48" y="0">F</tspan><tspan x="65.6" y="0">eb 13 - Jul 18</tspan></text><text class="cls-10" transform="translate(521.17 109.9)">S<tspan class="cls-25" x="6.7" y="0">t</tspan><tspan x="10.87" y="0">o</tspan><tspan class="cls-13" x="17.69" y="0">r</tspan><tspan x="21.87" y="0">eman</tspan><tspan class="cls-12" x="53.95" y="0">a</tspan><tspan x="60.38" y="0">ger &amp; Bu</tspan><tspan class="cls-29" x="107.27" y="0">y</tspan><tspan x="112.91" y="0">er</tspan></text><text class="cls-10" transform="translate(682.21 109.9)">S<tspan class="cls-25" x="6.7" y="0">t</tspan><tspan x="10.87" y="0">o</tspan><tspan class="cls-13" x="17.69" y="0">r</tspan><tspan x="21.87" y="0">eman</tspan><tspan class="cls-12" x="53.95" y="0">a</tspan><tspan x="60.38" y="0">ger &amp; Bu</tspan><tspan class="cls-29" x="107.27" y="0">y</tspan><tspan x="112.91" y="0">er</tspan></text></g></g></svg>