<svg xmlns="http://www.w3.org/2000/svg" viewBox="0 0 54.2 54.4"><defs><style>.cls-1,.cls-2{fill:none;}.cls-1{stroke:#917162;}.cls-1,.cls-2,.cls-3{stroke-miterlimit:10;}.cls-1,.cls-3{stroke-width:3px;}.cls-2,.cls-3{stroke:#fff;}.cls-2{stroke-width:2px;}.cls-3{fill:#fff;}</style></defs><title>email-icon</title><g id="Layer_2" data-name="Layer 2"><g id="Layer_1-2" data-name="Layer 1"><rect class="cls-1" x="1.5" y="1.5" width="51.2" height="51.4" rx="5.72"/><rect class="cls-2" x="6.41" y="11.8" width="41.38" height="30.8"/><polyline class="cls-2" points="47.79 11.8 27.1 27.2 6.41 11.8"/><path class="cls-3" d="M46,4.41H8.18A3.7,3.7,0,0,0,4.49,8.1v38A3.7,3.7,0,0,0,8.18,49.8H46a3.7,3.7,0,0,0,3.69-3.69V8.1A3.7,3.7,0,0,0,46,4.41Zm-.37,36.65H8.56a1.33,1.33,0,0,1-1.33-1.32V14.66a1.33,1.33,0,0,1,1.33-1.33H45.64A1.33,1.33,0,0,1,47,14.66V39.74A1.33,1.33,0,0,1,45.64,41.06Z"/></g></g></svg>