<svg xmlns="http://www.w3.org/2000/svg" xmlns:xlink="http://www.w3.org/1999/xlink" viewBox="0 0 107.14 107.14"><defs><style>.cls-1{isolation:isolate;}.cls-2{opacity:0.63;mix-blend-mode:darken;}.cls-3{fill:url(#radial-gradient);}.cls-4{fill:#fff;}.cls-5{font-size:65.86px;fill:none;stroke:#8f6f61;stroke-miterlimit:10;stroke-width:2px;font-family:MyriadPro-Regular, Myriad Pro;letter-spacing:0.02em;}</style><radialGradient id="radial-gradient" cx="53.57" cy="53.57" r="49.61" gradientUnits="userSpaceOnUse"><stop offset="0.62" stop-color="#8f6f61" stop-opacity="0"/><stop offset="0.9" stop-opacity="0.65"/><stop offset="1" stop-opacity="0.95"/></radialGradient></defs><title>linkedin</title><g class="cls-1"><g id="Layer_2" data-name="Layer 2"><g id="Layer_1-2" data-name="Layer 1"><g class="cls-2"><path class="cls-3" d="M97.14,53.6c-.26,18.12-11.49,35-28.82,41.06A44.16,44.16,0,0,1,19.59,81.05a43.65,43.65,0,0,1,42.23-70.3A44.15,44.15,0,0,1,97.14,53.6c.09,6.43,10.09,6.44,10,0A54.36,54.36,0,0,0,71.6,3.12c-21.21-7.77-45.88-.63-59.91,17S-4,62.71,7.9,81.79a54.27,54.27,0,0,0,56.58,24.3c24.81-5,42.31-27.53,42.66-52.49C107.23,47.16,97.23,47.16,97.14,53.6Z"/></g><circle class="cls-4" cx="53.52" cy="53.6" r="38.97"/><path class="cls-4" d="M90,53.6c-.27,15.12-9.46,28.93-23.82,34.22A36.48,36.48,0,0,1,22.14,35,36.77,36.77,0,0,1,60.37,17.77C77.59,21.09,89.68,36.26,90,53.6c.06,3.21,5.06,3.22,5,0a42.06,42.06,0,0,0-27.49-39A41.48,41.48,0,0,0,18.16,75.28,41.94,41.94,0,0,0,61,94.38C80.72,90.88,94.64,73.29,95,53.6,95.05,50.38,90.05,50.38,90,53.6Z"/><text class="cls-5" transform="translate(28.72 72.37)">in</text></g></g></g></svg>