<?xml version="1.0" encoding="utf-8"?>
<!-- Generator: Adobe Illustrator 23.0.1, SVG Export Plug-In . SVG Version: 6.00 Build 0)  -->
<svg version="1.1" id="Layer_1" xmlns="http://www.w3.org/2000/svg" xmlns:xlink="http://www.w3.org/1999/xlink" x="0px" y="0px"
	 viewBox="0 0 845.7 426.8" style="enable-background:new 0 0 845.7 426.8;" xml:space="preserve">
<style type="text/css">
	.st0{fill:none;stroke:#FFFFFF;stroke-width:4;stroke-miterlimit:10;}
	.st1{fill:none;stroke:#FFFFFF;stroke-width:3;stroke-miterlimit:10;}
	.st2{fill:#FFFFFF;}
	.st3{opacity:0.61;fill:none;stroke:#917162;stroke-width:2;stroke-miterlimit:10;enable-background:new    ;}
</style>
<title>timeline</title>
<g>
	<line class="st0" x1="-143.5" y1="-285.1" x2="663.1" y2="-284.4"/>
	<line class="st1" x1="-82.3" y1="-271.3" x2="-82.3" y2="-284.4"/>
	<polygon class="st1" points="-78.8,-271.3 -82.1,-263.7 -85.4,-271.2 	"/>
	<line class="st1" x1="88.2" y1="-271.3" x2="88.1" y2="-284.4"/>
	<polygon class="st1" points="91.6,-271.3 88.4,-263.7 85,-271.2 	"/>
	<line class="st1" x1="434.4" y1="-298.2" x2="434.6" y2="-285.1"/>
	<polygon class="st1" points="431.3,-298.2 434.5,-305.9 437.9,-298.4 	"/>
	<line class="st1" x1="596" y1="-299.1" x2="596.2" y2="-286"/>
	<polygon class="st1" points="592.9,-299 596.1,-306.7 599.5,-299.2 	"/>
	<g>
		<path class="st2" d="M21.9-158l-1.6,1.6v1.8h-0.5v-7h0.5v4.5l4.4-4.5h0.6l-3.1,3.2l3.3,3.8h-0.6L21.9-158z"/>
		<path class="st2" d="M31.2-159.7v4.7c0,0.9-0.2,1.5-0.6,1.9c-0.4,0.4-1.1,0.6-1.9,0.6c-0.5,0-0.9-0.1-1.4-0.2
			c-0.4-0.1-0.8-0.3-1-0.6l0.3-0.4c0.3,0.2,0.6,0.4,0.9,0.6s0.8,0.2,1.2,0.2c0.7,0,1.2-0.2,1.5-0.5c0.3-0.3,0.5-0.8,0.5-1.5v-0.9
			c-0.2,0.4-0.5,0.7-0.9,0.9s-0.8,0.3-1.3,0.3c-0.5,0-0.9-0.1-1.3-0.3c-0.4-0.2-0.7-0.5-0.9-0.9s-0.3-0.8-0.3-1.3s0.1-0.9,0.3-1.3
			s0.5-0.7,0.9-0.9c0.4-0.2,0.8-0.3,1.3-0.3c0.5,0,0.9,0.1,1.3,0.3c0.4,0.2,0.7,0.5,0.9,0.9v-1.2H31.2z M29.7-155.4
			c0.3-0.2,0.6-0.4,0.8-0.7c0.2-0.3,0.3-0.7,0.3-1.1s-0.1-0.8-0.3-1.1c-0.2-0.3-0.4-0.6-0.8-0.7s-0.7-0.3-1.1-0.3s-0.8,0.1-1.1,0.3
			c-0.3,0.2-0.6,0.4-0.8,0.7c-0.2,0.3-0.3,0.7-0.3,1.1s0.1,0.8,0.3,1.1c0.2,0.3,0.4,0.6,0.8,0.7c0.3,0.2,0.7,0.3,1.1,0.3
			S29.3-155.3,29.7-155.4z"/>
		<path class="st2" d="M33.4-154.7c-0.4-0.1-0.7-0.3-0.9-0.5l0.2-0.4c0.2,0.2,0.5,0.3,0.8,0.4c0.3,0.1,0.7,0.2,1.1,0.2
			c0.5,0,0.9-0.1,1.2-0.3c0.2-0.2,0.4-0.4,0.4-0.7c0-0.2-0.1-0.4-0.2-0.5s-0.3-0.2-0.5-0.3s-0.5-0.1-0.8-0.2c-0.4-0.1-0.7-0.2-1-0.2
			c-0.3-0.1-0.5-0.2-0.6-0.4s-0.3-0.5-0.3-0.8c0-0.4,0.2-0.8,0.5-1c0.3-0.3,0.8-0.4,1.5-0.4c0.3,0,0.7,0,1,0.1
			c0.3,0.1,0.6,0.2,0.8,0.4l-0.2,0.4c-0.2-0.2-0.5-0.3-0.7-0.4c-0.3-0.1-0.6-0.1-0.8-0.1c-0.5,0-0.9,0.1-1.1,0.3
			c-0.2,0.2-0.4,0.4-0.4,0.7c0,0.2,0.1,0.4,0.2,0.5s0.3,0.2,0.5,0.3c0.2,0.1,0.5,0.1,0.9,0.2c0.4,0.1,0.7,0.2,1,0.2s0.5,0.2,0.6,0.4
			c0.2,0.2,0.3,0.4,0.3,0.8c0,0.4-0.2,0.8-0.5,1c-0.4,0.3-0.9,0.4-1.5,0.4C34.2-154.5,33.8-154.6,33.4-154.7z"/>
		<path class="st2" d="M37.7-154.6c-0.1-0.1-0.1-0.2-0.1-0.3c0-0.1,0-0.2,0.1-0.3c0.1-0.1,0.2-0.1,0.3-0.1s0.2,0,0.3,0.1
			s0.1,0.2,0.1,0.3c0,0.1,0,0.2-0.1,0.3s-0.2,0.1-0.3,0.1S37.8-154.5,37.7-154.6z"/>
		<path class="st2" d="M42.8-161.5h0.5v6.5h4v0.5h-4.5V-161.5z"/>
		<path class="st2" d="M52.3-159.7l-2.7,5.9c-0.2,0.5-0.4,0.8-0.7,1c-0.3,0.2-0.6,0.3-0.9,0.3c-0.2,0-0.5,0-0.7-0.1
			s-0.4-0.2-0.5-0.4l0.2-0.4c0.3,0.3,0.6,0.4,1,0.4c0.3,0,0.5-0.1,0.6-0.2c0.2-0.1,0.3-0.4,0.5-0.7l0.3-0.6l-2.4-5.2h0.5l2.1,4.7
			l2.1-4.7H52.3z"/>
		<path class="st2" d="M57.5-159.2c0.4,0.4,0.6,0.9,0.6,1.6v3h-0.5v-3c0-0.6-0.1-1-0.4-1.3c-0.3-0.3-0.7-0.5-1.2-0.5
			c-0.6,0-1.1,0.2-1.5,0.6s-0.5,0.9-0.5,1.5v2.8h-0.5v-5.2h0.5v1.1c0.2-0.4,0.4-0.7,0.8-0.9c0.4-0.2,0.8-0.3,1.3-0.3
			C56.6-159.8,57.1-159.6,57.5-159.2z"/>
		<path class="st2" d="M64.8-159.7v4.7c0,0.9-0.2,1.5-0.6,1.9c-0.4,0.4-1.1,0.6-1.9,0.6c-0.5,0-0.9-0.1-1.4-0.2
			c-0.4-0.1-0.8-0.3-1-0.6l0.3-0.4c0.3,0.2,0.6,0.4,0.9,0.6s0.8,0.2,1.2,0.2c0.7,0,1.2-0.2,1.5-0.5c0.3-0.3,0.5-0.8,0.5-1.5v-0.9
			c-0.2,0.4-0.5,0.7-0.9,0.9s-0.8,0.3-1.3,0.3c-0.5,0-0.9-0.1-1.3-0.3c-0.4-0.2-0.7-0.5-0.9-0.9s-0.3-0.8-0.3-1.3s0.1-0.9,0.3-1.3
			s0.5-0.7,0.9-0.9c0.4-0.2,0.8-0.3,1.3-0.3c0.5,0,0.9,0.1,1.3,0.3c0.4,0.2,0.7,0.5,0.9,0.9v-1.2H64.8z M63.3-155.4
			c0.3-0.2,0.6-0.4,0.8-0.7c0.2-0.3,0.3-0.7,0.3-1.1s-0.1-0.8-0.3-1.1c-0.2-0.3-0.4-0.6-0.8-0.7s-0.7-0.3-1.1-0.3s-0.8,0.1-1.1,0.3
			c-0.3,0.2-0.6,0.4-0.8,0.7c-0.2,0.3-0.3,0.7-0.3,1.1s0.1,0.8,0.3,1.1c0.2,0.3,0.4,0.6,0.8,0.7c0.3,0.2,0.7,0.3,1.1,0.3
			S63-155.3,63.3-155.4z"/>
		<path class="st2" d="M70.9-159.5c0.4,0.2,0.7,0.5,0.9,0.9c0.2,0.4,0.3,0.9,0.3,1.4s-0.1,1-0.3,1.4c-0.2,0.4-0.5,0.7-0.9,0.9
			c-0.4,0.2-0.8,0.3-1.3,0.3c-0.5,0-0.9-0.1-1.3-0.3c-0.4-0.2-0.7-0.5-0.9-0.9v1.2H67v-7.4h0.5v3.4c0.2-0.4,0.5-0.7,0.9-0.9
			c0.4-0.2,0.8-0.3,1.2-0.3C70.1-159.8,70.5-159.7,70.9-159.5z M70.6-155.2c0.3-0.2,0.6-0.4,0.8-0.8c0.2-0.3,0.3-0.7,0.3-1.1
			s-0.1-0.8-0.3-1.1c-0.2-0.3-0.4-0.6-0.8-0.8c-0.3-0.2-0.7-0.3-1.1-0.3s-0.8,0.1-1.1,0.3c-0.3,0.2-0.6,0.4-0.8,0.8
			c-0.2,0.3-0.3,0.7-0.3,1.1s0.1,0.8,0.3,1.1c0.2,0.3,0.4,0.6,0.8,0.8c0.3,0.2,0.7,0.3,1.1,0.3S70.3-155,70.6-155.2z"/>
		<path class="st2" d="M77.7-159.7l-2.7,5.9c-0.2,0.5-0.4,0.8-0.7,1c-0.3,0.2-0.6,0.3-0.9,0.3c-0.2,0-0.5,0-0.7-0.1
			s-0.4-0.2-0.5-0.4l0.2-0.4c0.3,0.3,0.6,0.4,1,0.4c0.3,0,0.5-0.1,0.6-0.2c0.2-0.1,0.3-0.4,0.5-0.7l0.3-0.6l-2.4-5.2h0.5l2.1,4.7
			l2.1-4.7H77.7z"/>
		<path class="st2" d="M85.9-156.5h-4.1l-0.9,2h-0.6l3.2-7h0.5l3.2,7h-0.5L85.9-156.5z M85.7-156.9l-1.8-4l-1.8,4H85.7z"/>
		<path class="st2" d="M92.9-159.7v5.2h-0.5v-1.1c-0.2,0.4-0.4,0.7-0.8,0.9c-0.3,0.2-0.7,0.3-1.2,0.3c-0.7,0-1.2-0.2-1.6-0.6
			c-0.4-0.4-0.6-0.9-0.6-1.6v-3.1h0.5v3c0,0.6,0.1,1,0.5,1.3c0.3,0.3,0.7,0.5,1.3,0.5c0.6,0,1.1-0.2,1.4-0.5
			c0.3-0.4,0.5-0.9,0.5-1.5v-2.8H92.9z"/>
		<path class="st2" d="M99.7-159.7v4.7c0,0.9-0.2,1.5-0.6,1.9c-0.4,0.4-1.1,0.6-1.9,0.6c-0.5,0-0.9-0.1-1.4-0.2
			c-0.4-0.1-0.8-0.3-1-0.6l0.3-0.4c0.3,0.2,0.6,0.4,0.9,0.6s0.8,0.2,1.2,0.2c0.7,0,1.2-0.2,1.5-0.5c0.3-0.3,0.5-0.8,0.5-1.5v-0.9
			c-0.2,0.4-0.5,0.7-0.9,0.9s-0.8,0.3-1.3,0.3c-0.5,0-0.9-0.1-1.3-0.3c-0.4-0.2-0.7-0.5-0.9-0.9s-0.3-0.8-0.3-1.3s0.1-0.9,0.3-1.3
			s0.5-0.7,0.9-0.9c0.4-0.2,0.8-0.3,1.3-0.3c0.5,0,0.9,0.1,1.3,0.3c0.4,0.2,0.7,0.5,0.9,0.9v-1.2H99.7z M98.2-155.4
			c0.3-0.2,0.6-0.4,0.8-0.7c0.2-0.3,0.3-0.7,0.3-1.1s-0.1-0.8-0.3-1.1c-0.2-0.3-0.4-0.6-0.8-0.7s-0.7-0.3-1.1-0.3s-0.8,0.1-1.1,0.3
			c-0.3,0.2-0.6,0.4-0.8,0.7c-0.2,0.3-0.3,0.7-0.3,1.1s0.1,0.8,0.3,1.1c0.2,0.3,0.4,0.6,0.8,0.7c0.3,0.2,0.7,0.3,1.1,0.3
			S97.9-155.3,98.2-155.4z"/>
		<path class="st2" d="M105.7-161.5v7h-0.5v-6.5h-1.7v-0.5H105.7z"/>
		<path class="st2" d="M112.3-157.5c0.3,0.3,0.4,0.7,0.4,1.1c0,0.6-0.2,1.1-0.7,1.4c-0.5,0.4-1.1,0.5-2,0.5c-0.8,0-1.5-0.2-1.9-0.5
			c-0.5-0.4-0.7-0.8-0.7-1.4c0-0.4,0.1-0.8,0.4-1.1c0.3-0.3,0.6-0.5,1.1-0.6c-0.4-0.1-0.7-0.3-0.9-0.6s-0.3-0.6-0.3-1
			c0-0.6,0.2-1,0.7-1.3c0.4-0.3,1-0.5,1.7-0.5s1.3,0.2,1.8,0.5s0.7,0.8,0.7,1.3c0,0.4-0.1,0.7-0.3,1s-0.5,0.5-0.9,0.6
			C111.7-158.1,112.1-157.8,112.3-157.5z M111.6-155.3c0.4-0.3,0.6-0.6,0.6-1.1c0-0.5-0.2-0.8-0.6-1.1s-0.9-0.4-1.6-0.4
			c-0.7,0-1.2,0.1-1.6,0.4s-0.6,0.6-0.6,1.1c0,0.5,0.2,0.8,0.6,1.1c0.4,0.3,0.9,0.4,1.6,0.4S111.3-155.1,111.6-155.3z M108.7-158.8
			c0.3,0.2,0.8,0.4,1.4,0.4s1.1-0.1,1.4-0.4c0.3-0.2,0.5-0.6,0.5-1c0-0.4-0.2-0.8-0.5-1c-0.3-0.2-0.8-0.4-1.4-0.4s-1,0.1-1.4,0.4
			c-0.3,0.2-0.5,0.6-0.5,1C108.2-159.3,108.3-159,108.7-158.8z"/>
		<path class="st2" d="M116.4-157.4h2.6v0.5h-2.6V-157.4z"/>
		<path class="st2" d="M129.1-161.5v7h-0.4l-4.8-6.1v6.1h-0.5v-7h0.4l4.8,6.1v-6.1H129.1z"/>
		<path class="st2" d="M132.1-154.8c-0.4-0.2-0.7-0.5-0.9-0.9s-0.3-0.9-0.3-1.4c0-0.5,0.1-1,0.3-1.4s0.5-0.7,0.9-0.9
			c0.4-0.2,0.8-0.3,1.3-0.3c0.5,0,0.9,0.1,1.3,0.3c0.4,0.2,0.7,0.5,0.9,0.9c0.2,0.4,0.3,0.9,0.3,1.4c0,0.5-0.1,1-0.3,1.4
			c-0.2,0.4-0.5,0.7-0.9,0.9c-0.4,0.2-0.8,0.3-1.3,0.3C132.9-154.5,132.5-154.6,132.1-154.8z M134.5-155.2c0.3-0.2,0.6-0.4,0.8-0.8
			c0.2-0.3,0.3-0.7,0.3-1.1s-0.1-0.8-0.3-1.1c-0.2-0.3-0.4-0.6-0.8-0.8c-0.3-0.2-0.7-0.3-1.1-0.3s-0.8,0.1-1.1,0.3
			c-0.3,0.2-0.6,0.4-0.8,0.8c-0.2,0.3-0.3,0.7-0.3,1.1s0.1,0.8,0.3,1.1c0.2,0.3,0.4,0.6,0.8,0.8c0.3,0.2,0.7,0.3,1.1,0.3
			S134.2-155,134.5-155.2z"/>
		<path class="st2" d="M144.9-159.7l-2,5.2h-0.5l-1.8-4.5l-1.8,4.5h-0.5l-2-5.2h0.5l1.7,4.7l1.8-4.7h0.4l1.8,4.7l1.8-4.7H144.9z"/>
	</g>
	<g>
		<path class="st2" d="M-140.8-158l-1.6,1.6v1.8h-0.5v-7h0.5v4.5l4.4-4.5h0.6l-3.1,3.2l3.3,3.8h-0.6L-140.8-158z"/>
		<path class="st2" d="M-131.5-159.7v4.7c0,0.9-0.2,1.5-0.6,1.9c-0.4,0.4-1.1,0.6-1.9,0.6c-0.5,0-0.9-0.1-1.4-0.2
			c-0.4-0.1-0.8-0.3-1-0.6l0.3-0.4c0.3,0.2,0.6,0.4,0.9,0.6s0.8,0.2,1.2,0.2c0.7,0,1.2-0.2,1.5-0.5c0.3-0.3,0.5-0.8,0.5-1.5v-0.9
			c-0.2,0.4-0.5,0.7-0.9,0.9s-0.8,0.3-1.3,0.3c-0.5,0-0.9-0.1-1.3-0.3c-0.4-0.2-0.7-0.5-0.9-0.9s-0.3-0.8-0.3-1.3s0.1-0.9,0.3-1.3
			s0.5-0.7,0.9-0.9c0.4-0.2,0.8-0.3,1.3-0.3c0.5,0,0.9,0.1,1.3,0.3c0.4,0.2,0.7,0.5,0.9,0.9v-1.2H-131.5z M-133.1-155.4
			c0.3-0.2,0.6-0.4,0.8-0.7c0.2-0.3,0.3-0.7,0.3-1.1s-0.1-0.8-0.3-1.1c-0.2-0.3-0.4-0.6-0.8-0.7s-0.7-0.3-1.1-0.3s-0.8,0.1-1.1,0.3
			c-0.3,0.2-0.6,0.4-0.8,0.7c-0.2,0.3-0.3,0.7-0.3,1.1s0.1,0.8,0.3,1.1c0.2,0.3,0.4,0.6,0.8,0.7c0.3,0.2,0.7,0.3,1.1,0.3
			S-133.4-155.3-133.1-155.4z"/>
		<path class="st2" d="M-129.3-154.7c-0.4-0.1-0.7-0.3-0.9-0.5l0.2-0.4c0.2,0.2,0.5,0.3,0.8,0.4c0.3,0.1,0.7,0.2,1.1,0.2
			c0.5,0,0.9-0.1,1.2-0.3c0.2-0.2,0.4-0.4,0.4-0.7c0-0.2-0.1-0.4-0.2-0.5s-0.3-0.2-0.5-0.3s-0.5-0.1-0.8-0.2c-0.4-0.1-0.7-0.2-1-0.2
			c-0.3-0.1-0.5-0.2-0.6-0.4s-0.3-0.5-0.3-0.8c0-0.4,0.2-0.8,0.5-1c0.3-0.3,0.8-0.4,1.5-0.4c0.3,0,0.7,0,1,0.1
			c0.3,0.1,0.6,0.2,0.8,0.4l-0.2,0.4c-0.2-0.2-0.5-0.3-0.7-0.4c-0.3-0.1-0.6-0.1-0.8-0.1c-0.5,0-0.9,0.1-1.1,0.3
			c-0.2,0.2-0.4,0.4-0.4,0.7c0,0.2,0.1,0.4,0.2,0.5s0.3,0.2,0.5,0.3c0.2,0.1,0.5,0.1,0.9,0.2c0.4,0.1,0.7,0.2,1,0.2s0.5,0.2,0.6,0.4
			c0.2,0.2,0.3,0.4,0.3,0.8c0,0.4-0.2,0.8-0.5,1c-0.4,0.3-0.9,0.4-1.5,0.4C-128.5-154.5-128.9-154.6-129.3-154.7z"/>
		<path class="st2" d="M-125-154.6c-0.1-0.1-0.1-0.2-0.1-0.3c0-0.1,0-0.2,0.1-0.3c0.1-0.1,0.2-0.1,0.3-0.1s0.2,0,0.3,0.1
			s0.1,0.2,0.1,0.3c0,0.1,0,0.2-0.1,0.3s-0.2,0.1-0.3,0.1S-124.9-154.5-125-154.6z"/>
		<path class="st2" d="M-119.9-161.5h0.5v6.5h4v0.5h-4.5V-161.5z"/>
		<path class="st2" d="M-110.4-159.7l-2.7,5.9c-0.2,0.5-0.4,0.8-0.7,1c-0.3,0.2-0.6,0.3-0.9,0.3c-0.2,0-0.5,0-0.7-0.1
			s-0.4-0.2-0.5-0.4l0.2-0.4c0.3,0.3,0.6,0.4,1,0.4c0.3,0,0.5-0.1,0.6-0.2c0.2-0.1,0.3-0.4,0.5-0.7l0.3-0.6l-2.4-5.2h0.5l2.1,4.7
			l2.1-4.7H-110.4z"/>
		<path class="st2" d="M-105.2-159.2c0.4,0.4,0.6,0.9,0.6,1.6v3h-0.5v-3c0-0.6-0.1-1-0.4-1.3c-0.3-0.3-0.7-0.5-1.2-0.5
			c-0.6,0-1.1,0.2-1.5,0.6s-0.5,0.9-0.5,1.5v2.8h-0.5v-5.2h0.5v1.1c0.2-0.4,0.4-0.7,0.8-0.9c0.4-0.2,0.8-0.3,1.3-0.3
			C-106.1-159.8-105.6-159.6-105.2-159.2z"/>
		<path class="st2" d="M-97.9-159.7v4.7c0,0.9-0.2,1.5-0.6,1.9c-0.4,0.4-1.1,0.6-1.9,0.6c-0.5,0-0.9-0.1-1.4-0.2
			c-0.4-0.1-0.8-0.3-1-0.6l0.3-0.4c0.3,0.2,0.6,0.4,0.9,0.6s0.8,0.2,1.2,0.2c0.7,0,1.2-0.2,1.5-0.5c0.3-0.3,0.5-0.8,0.5-1.5v-0.9
			c-0.2,0.4-0.5,0.7-0.9,0.9s-0.8,0.3-1.3,0.3c-0.5,0-0.9-0.1-1.3-0.3c-0.4-0.2-0.7-0.5-0.9-0.9s-0.3-0.8-0.3-1.3s0.1-0.9,0.3-1.3
			s0.5-0.7,0.9-0.9c0.4-0.2,0.8-0.3,1.3-0.3c0.5,0,0.9,0.1,1.3,0.3c0.4,0.2,0.7,0.5,0.9,0.9v-1.2H-97.9z M-99.4-155.4
			c0.3-0.2,0.6-0.4,0.8-0.7c0.2-0.3,0.3-0.7,0.3-1.1s-0.1-0.8-0.3-1.1c-0.2-0.3-0.4-0.6-0.8-0.7s-0.7-0.3-1.1-0.3s-0.8,0.1-1.1,0.3
			c-0.3,0.2-0.6,0.4-0.8,0.7c-0.2,0.3-0.3,0.7-0.3,1.1s0.1,0.8,0.3,1.1c0.2,0.3,0.4,0.6,0.8,0.7c0.3,0.2,0.7,0.3,1.1,0.3
			S-99.7-155.3-99.4-155.4z"/>
		<path class="st2" d="M-91.8-159.5c0.4,0.2,0.7,0.5,0.9,0.9c0.2,0.4,0.3,0.9,0.3,1.4s-0.1,1-0.3,1.4c-0.2,0.4-0.5,0.7-0.9,0.9
			c-0.4,0.2-0.8,0.3-1.3,0.3c-0.5,0-0.9-0.1-1.3-0.3c-0.4-0.2-0.7-0.5-0.9-0.9v1.2h-0.5v-7.4h0.5v3.4c0.2-0.4,0.5-0.7,0.9-0.9
			c0.4-0.2,0.8-0.3,1.2-0.3C-92.7-159.8-92.2-159.7-91.8-159.5z M-92.1-155.2c0.3-0.2,0.6-0.4,0.8-0.8c0.2-0.3,0.3-0.7,0.3-1.1
			s-0.1-0.8-0.3-1.1c-0.2-0.3-0.4-0.6-0.8-0.8c-0.3-0.2-0.7-0.3-1.1-0.3s-0.8,0.1-1.1,0.3c-0.3,0.2-0.6,0.4-0.8,0.8
			c-0.2,0.3-0.3,0.7-0.3,1.1s0.1,0.8,0.3,1.1c0.2,0.3,0.4,0.6,0.8,0.8c0.3,0.2,0.7,0.3,1.1,0.3S-92.4-155-92.1-155.2z"/>
		<path class="st2" d="M-85-159.7l-2.7,5.9c-0.2,0.5-0.4,0.8-0.7,1c-0.3,0.2-0.6,0.3-0.9,0.3c-0.2,0-0.5,0-0.7-0.1s-0.4-0.2-0.5-0.4
			l0.2-0.4c0.3,0.3,0.6,0.4,1,0.4c0.3,0,0.5-0.1,0.6-0.2c0.2-0.1,0.3-0.4,0.5-0.7l0.3-0.6l-2.4-5.2h0.5l2.1,4.7l2.1-4.7H-85z"/>
		<path class="st2" d="M-81.6-154.7c-0.3-0.2-0.6-0.4-0.8-0.7l0.3-0.3c0.2,0.3,0.4,0.5,0.7,0.7c0.3,0.1,0.6,0.2,0.9,0.2
			c0.5,0,0.8-0.1,1-0.4s0.3-0.7,0.3-1.2v-4.5h-2.6v-0.5h3.1v4.9c0,0.7-0.2,1.2-0.5,1.6s-0.8,0.5-1.4,0.5
			C-80.9-154.5-81.3-154.6-81.6-154.7z"/>
		<path class="st2" d="M-71.8-159.7v5.2h-0.5v-1.1c-0.2,0.4-0.4,0.7-0.8,0.9c-0.3,0.2-0.7,0.3-1.2,0.3c-0.7,0-1.2-0.2-1.6-0.6
			c-0.4-0.4-0.6-0.9-0.6-1.6v-3.1h0.5v3c0,0.6,0.1,1,0.5,1.3c0.3,0.3,0.7,0.5,1.3,0.5c0.6,0,1.1-0.2,1.4-0.5
			c0.3-0.4,0.5-0.9,0.5-1.5v-2.8H-71.8z"/>
		<path class="st2" d="M-65.6-159.2c0.4,0.4,0.6,0.9,0.6,1.6v3h-0.5v-3c0-0.6-0.1-1-0.4-1.3c-0.3-0.3-0.7-0.5-1.2-0.5
			c-0.6,0-1.1,0.2-1.5,0.6s-0.5,0.9-0.5,1.5v2.8h-0.5v-5.2h0.5v1.1c0.2-0.4,0.4-0.7,0.8-0.9c0.4-0.2,0.8-0.3,1.3-0.3
			C-66.5-159.8-66-159.6-65.6-159.2z"/>
		<path class="st2" d="M-59.6-154.9c-0.4-0.3-0.7-0.7-1-1.2c-0.2-0.5-0.3-1.2-0.3-1.9s0.1-1.3,0.3-1.9s0.6-0.9,1-1.2
			c0.4-0.3,0.9-0.4,1.4-0.4c0.5,0,1,0.1,1.4,0.4c0.4,0.3,0.7,0.7,1,1.2s0.3,1.2,0.3,1.9s-0.1,1.3-0.3,1.9c-0.2,0.5-0.6,0.9-1,1.2
			c-0.4,0.3-0.9,0.4-1.4,0.4C-58.7-154.5-59.2-154.6-59.6-154.9z M-57-155.3c0.3-0.2,0.6-0.6,0.8-1.1c0.2-0.5,0.3-1,0.3-1.7
			s-0.1-1.2-0.3-1.7c-0.2-0.5-0.4-0.8-0.8-1.1c-0.3-0.2-0.7-0.4-1.2-0.4s-0.8,0.1-1.2,0.4c-0.3,0.2-0.6,0.6-0.8,1.1s-0.3,1-0.3,1.7
			s0.1,1.2,0.3,1.7c0.2,0.5,0.4,0.8,0.8,1.1c0.3,0.2,0.7,0.4,1.2,0.4S-57.3-155.1-57-155.3z"/>
		<path class="st2" d="M-50.1-160.7c0.5,0.6,0.7,1.5,0.7,2.6c0,0.8-0.1,1.4-0.4,2c-0.3,0.5-0.6,0.9-1.1,1.2s-1,0.4-1.6,0.4
			c-0.7,0-1.2-0.1-1.6-0.4l0.2-0.4c0.3,0.2,0.8,0.3,1.4,0.3c0.8,0,1.4-0.3,1.9-0.8s0.7-1.3,0.7-2.3c0-0.3,0-0.6-0.1-0.8
			c-0.1,0.5-0.4,0.8-0.8,1.1c-0.4,0.3-0.9,0.4-1.4,0.4c-0.5,0-0.9-0.1-1.2-0.3c-0.4-0.2-0.6-0.4-0.8-0.7c-0.2-0.3-0.3-0.7-0.3-1.1
			c0-0.4,0.1-0.8,0.3-1.1c0.2-0.3,0.5-0.6,0.8-0.7s0.8-0.3,1.2-0.3C-51.3-161.6-50.6-161.3-50.1-160.7z M-51.1-158
			c0.3-0.1,0.5-0.3,0.7-0.6c0.2-0.3,0.2-0.5,0.2-0.9c0-0.3-0.1-0.5-0.2-0.8s-0.4-0.5-0.7-0.6c-0.3-0.2-0.7-0.2-1.1-0.2
			c-0.5,0-1,0.2-1.3,0.5c-0.3,0.3-0.5,0.7-0.5,1.2s0.2,0.9,0.5,1.2c0.3,0.3,0.8,0.5,1.4,0.5C-51.8-157.8-51.4-157.9-51.1-158z"/>
		<path class="st2" d="M-45.7-157.4h2.6v0.5h-2.6V-157.4z"/>
		<path class="st2" d="M-38.7-161.5h2.8c0.7,0,1.4,0.1,1.9,0.5c0.6,0.3,1,0.7,1.3,1.2c0.3,0.5,0.5,1.1,0.5,1.8s-0.2,1.3-0.5,1.8
			c-0.3,0.5-0.8,0.9-1.3,1.2c-0.6,0.3-1.2,0.5-1.9,0.5h-2.8V-161.5z M-36-155c0.6,0,1.2-0.1,1.7-0.4c0.5-0.3,0.9-0.6,1.1-1.1
			s0.4-1,0.4-1.6s-0.1-1.1-0.4-1.6s-0.6-0.8-1.1-1.1c-0.5-0.3-1.1-0.4-1.7-0.4h-2.2v6.1H-36z"/>
		<path class="st2" d="M-26.2-157h-4.5c0,0.4,0.1,0.8,0.3,1.1c0.2,0.3,0.5,0.6,0.8,0.7c0.3,0.2,0.7,0.3,1.1,0.3
			c0.3,0,0.7-0.1,0.9-0.2c0.3-0.1,0.5-0.3,0.7-0.5l0.3,0.3c-0.2,0.3-0.5,0.5-0.9,0.6c-0.3,0.1-0.7,0.2-1.1,0.2c-0.5,0-1-0.1-1.4-0.3
			s-0.7-0.5-1-0.9c-0.2-0.4-0.3-0.9-0.3-1.4c0-0.5,0.1-1,0.3-1.4s0.5-0.7,0.9-0.9s0.8-0.3,1.3-0.3c0.5,0,0.9,0.1,1.3,0.3
			c0.4,0.2,0.7,0.5,0.9,0.9c0.2,0.4,0.3,0.9,0.3,1.4L-26.2-157z M-29.7-159.1c-0.3,0.2-0.5,0.4-0.7,0.7c-0.2,0.3-0.3,0.6-0.3,1h4
			c0-0.4-0.1-0.7-0.3-1s-0.4-0.5-0.7-0.7s-0.6-0.2-1-0.2C-29-159.3-29.4-159.3-29.7-159.1z"/>
		<path class="st2" d="M-23.9-154.8c-0.4-0.2-0.7-0.5-0.9-0.9s-0.3-0.9-0.3-1.4c0-0.5,0.1-1,0.3-1.4s0.5-0.7,0.9-0.9
			c0.4-0.2,0.9-0.3,1.4-0.3c0.4,0,0.8,0.1,1.1,0.2c0.3,0.2,0.6,0.4,0.8,0.7l-0.4,0.3c-0.2-0.3-0.4-0.5-0.7-0.6
			c-0.3-0.1-0.6-0.2-0.9-0.2c-0.4,0-0.8,0.1-1.1,0.3c-0.3,0.2-0.6,0.4-0.8,0.8c-0.2,0.3-0.3,0.7-0.3,1.1c0,0.4,0.1,0.8,0.3,1.1
			c0.2,0.3,0.4,0.6,0.8,0.8c0.3,0.2,0.7,0.3,1.1,0.3c0.3,0,0.6-0.1,0.9-0.2s0.5-0.3,0.7-0.6l0.4,0.3c-0.2,0.3-0.5,0.6-0.8,0.7
			c-0.3,0.2-0.7,0.2-1.1,0.2C-23.1-154.5-23.5-154.6-23.9-154.8z"/>
		<path class="st2" d="M-15.3-161.5v7h-0.5v-6.5h-1.7v-0.5H-15.3z"/>
		<path class="st2" d="M-12.2-154.9c-0.4-0.3-0.7-0.7-1-1.2c-0.2-0.5-0.3-1.2-0.3-1.9s0.1-1.3,0.3-1.9s0.6-0.9,1-1.2
			c0.4-0.3,0.9-0.4,1.4-0.4c0.5,0,1,0.1,1.4,0.4c0.4,0.3,0.7,0.7,1,1.2S-8-158.7-8-158s-0.1,1.3-0.3,1.9c-0.2,0.5-0.6,0.9-1,1.2
			c-0.4,0.3-0.9,0.4-1.4,0.4C-11.3-154.5-11.8-154.6-12.2-154.9z M-9.6-155.3c0.3-0.2,0.6-0.6,0.8-1.1c0.2-0.5,0.3-1,0.3-1.7
			s-0.1-1.2-0.3-1.7c-0.2-0.5-0.4-0.8-0.8-1.1c-0.3-0.2-0.7-0.4-1.2-0.4s-0.8,0.1-1.2,0.4c-0.3,0.2-0.6,0.6-0.8,1.1s-0.3,1-0.3,1.7
			s0.1,1.2,0.3,1.7c0.2,0.5,0.4,0.8,0.8,1.1c0.3,0.2,0.7,0.4,1.2,0.4S-9.9-155.1-9.6-155.3z"/>
	</g>
	<line class="st3" x1="-144.1" y1="-170.1" x2="-8.5" y2="-170.2"/>
	<line class="st3" x1="376.4" y1="-379.4" x2="500.6" y2="-379.5"/>
	<line class="st3" x1="537.4" y1="-375.9" x2="661.6" y2="-376.1"/>
	<text transform="matrix(0.8543 0 0 1 536.4006 -388.9055)" class="st2" style="font-family:'Montserrat-Light'; font-size:11px;">O</text>
	
		<text transform="matrix(0.8543 0 0 1 536.4006 -388.9055)" style="fill:none;stroke:#FFFFFF;stroke-miterlimit:10; font-family:'Montserrat-Light'; font-size:11px;">O</text>
	<text transform="matrix(0.8543 0 0 1 545.2747 -388.9055)" class="st2" style="font-family:'Montserrat-Light'; font-size:11px;">-Z</text>
	
		<text transform="matrix(0.8543 0 0 1 545.2747 -388.9055)" style="fill:none;stroke:#FFFFFF;stroke-miterlimit:10; font-family:'Montserrat-Light'; font-size:11px;">-Z</text>
	<rect x="-142.9" y="-191.1" style="fill:none;" width="71.2" height="13.6"/>
	
		<text transform="matrix(1 0 0 1 -142.8561 -182.9588)" style="fill:#FFFFFF;stroke:#FFFFFF;stroke-miterlimit:10; font-family:'Montserrat-Light'; font-size:11px;">Knord</text>
	<rect x="16.9" y="-191.1" style="fill:none;" width="196.9" height="13.6"/>
	
		<text transform="matrix(1 0 0 1 16.9381 -182.9588)" style="fill:#FFFFFF;stroke:#FFFFFF;stroke-miterlimit:10; font-family:'Montserrat-Light'; font-size:11px;">Copenhagen Business Academy</text>
	<line class="st3" x1="16.1" y1="-170" x2="214.7" y2="-170.1"/>
	<rect x="-144.1" y="-137.4" style="fill:none;" width="71.2" height="13.6"/>
	
		<text transform="matrix(1 0 0 1 -144.0933 -129.2841)" style="fill:#FFFFFF;stroke:#FFFFFF;stroke-miterlimit:10; font-family:'Montserrat-Light'; font-size:11px;">Merkonom</text>
	<rect x="18.5" y="-137.4" style="fill:none;" width="127.1" height="13.6"/>
	
		<text transform="matrix(1 0 0 1 18.485 -129.2841)" style="fill:#FFFFFF;stroke:#FFFFFF;stroke-miterlimit:10; font-family:'Montserrat-Light'; font-size:11px;">Multimedia Design</text>
	<rect x="-145.3" y="-241.8" style="fill:none;" width="132.8" height="32.4"/>
	
		<text transform="matrix(1 0 0 1 -145.3109 -226.9291)" style="fill:#917162;stroke:#917162;stroke-miterlimit:10; font-family:'Montserrat-Light'; font-size:20px;">EDUCATION</text>
	<rect x="374.5" y="-447.4" style="fill:none;" width="132.8" height="32.4"/>
	
		<text transform="matrix(1 0 0 1 374.5031 -432.5961)" style="fill:#917162;stroke:#917162;stroke-miterlimit:10; font-family:'Montserrat-Light'; font-size:20px;">EXPERIENCE</text>
	<rect x="376.4" y="-398.7" style="fill:none;" width="71.2" height="13.6"/>
	
		<text transform="matrix(1 0 0 1 376.4064 -390.5548)" style="fill:#FFFFFF;stroke:#FFFFFF;stroke-miterlimit:10; font-family:'Montserrat-Light'; font-size:11px;">Strom Store</text>
	<rect x="375.6" y="-368.9" style="fill:none;" width="125" height="9.8"/>
	<text transform="matrix(1 0 0 1 375.6167 -361.4729)" class="st2" style="font-family:'Montserrat-Light'; font-size:10px;">Hellerup Jun 07 - Mar 12</text>
	<rect x="537.6" y="-368.9" style="fill:none;" width="130.6" height="9.8"/>
	<text transform="matrix(1 0 0 1 537.6285 -361.4729)" class="st2" style="font-family:'Montserrat-Light'; font-size:10px;">København Feb 13 - Jul 18</text>
	<rect x="375.4" y="-348.4" style="fill:none;" width="139.2" height="13.6"/>
	
		<text transform="matrix(1 0 0 1 375.3611 -340.1917)" style="fill:#FFFFFF;stroke:#FFFFFF;stroke-miterlimit:10; font-family:'Montserrat-Light'; font-size:11px;">Storemanager &amp; Buyer</text>
	<rect x="536.4" y="-348.4" style="fill:none;" width="139.2" height="13.6"/>
	
		<text transform="matrix(1 0 0 1 536.4008 -340.1917)" style="fill:#FFFFFF;stroke:#FFFFFF;stroke-miterlimit:10; font-family:'Montserrat-Light'; font-size:11px;">Storemanager &amp; Buyer</text>
</g>
</svg>
