<svg xmlns="http://www.w3.org/2000/svg" viewBox="0 0 845.71 426.84"><defs><style>.cls-1,.cls-2,.cls-3{fill:none;}.cls-1,.cls-17,.cls-2{stroke:#fff;}.cls-1,.cls-17,.cls-2,.cls-3,.cls-4{stroke-miterlimit:10;}.cls-1{stroke-width:4px;}.cls-2{stroke-width:3px;}.cls-3,.cls-4{stroke:#917162;}.cls-3{stroke-width:2px;opacity:0.61;isolation:isolate;}.cls-4{font-size:34.22px;fill:#917162;}.cls-11,.cls-17,.cls-4{font-family:Montserrat-Light, Montserrat;font-weight:300;}.cls-5{letter-spacing:-0.02em;}.cls-6{letter-spacing:-0.01em;}.cls-7{letter-spacing:0em;}.cls-8{letter-spacing:0em;}.cls-9{letter-spacing:-0.01em;}.cls-10{letter-spacing:-0.01em;}.cls-11{font-size:15.21px;}.cls-11,.cls-17{fill:#fff;}.cls-12{letter-spacing:-0.02em;}.cls-13{letter-spacing:-0.04em;}.cls-14{letter-spacing:0em;}.cls-15{letter-spacing:0em;}.cls-16{letter-spacing:-0.02em;}.cls-17{font-size:16.73px;}.cls-18{letter-spacing:-0.01em;}.cls-19{letter-spacing:-0.02em;}.cls-20{letter-spacing:0em;}.cls-21{letter-spacing:-0.01em;}.cls-22{letter-spacing:-0.01em;}.cls-23{letter-spacing:-0.01em;}.cls-24{letter-spacing:-0.02em;}.cls-25{letter-spacing:0em;}.cls-26{letter-spacing:0em;}.cls-27{letter-spacing:-0.01em;}.cls-28{letter-spacing:0em;}.cls-29{letter-spacing:-0.01em;}.cls-30{letter-spacing:0em;}.cls-31{letter-spacing:-0.02em;}.cls-32{letter-spacing:-0.01em;}.cls-33{letter-spacing:0em;}.cls-34{letter-spacing:-0.01em;}.cls-35{letter-spacing:0em;}.cls-36{letter-spacing:0em;}.cls-37{letter-spacing:-0.01em;}.cls-38{letter-spacing:-0.02em;}.cls-39{letter-spacing:0.01em;}</style></defs><title>timeline</title><g id="Layer_2" data-name="Layer 2"><g id="Layer_1-2" data-name="Layer 1"><g id="Layer_1-2-2" data-name="Layer 1-2"><line class="cls-1" x1="0.5" y1="217.72" x2="837.27" y2="219.92"/><line class="cls-2" x1="47.41" y1="236.68" x2="47.37" y2="218.71"/><polygon class="cls-2" points="51.32 236.6 47.64 246.95 43.84 236.7 51.32 236.6"/><line class="cls-2" x1="230.29" y1="238.2" x2="230.25" y2="220.23"/><polygon class="cls-2" points="234.19 238.12 230.52 248.47 226.71 238.22 234.19 238.12"/><line class="cls-2" x1="581.18" y1="201.14" x2="581.36" y2="219.1"/><polygon class="cls-2" points="577.61 201.28 581.21 190.88 585.1 201.08 577.61 201.28"/><line class="cls-2" x1="773.83" y1="201.14" x2="774.01" y2="219.1"/><polygon class="cls-2" points="770.27 201.28 773.86 190.88 777.75 201.08 770.27 201.28"/><line class="cls-3" x1="180.63" y1="367.04" x2="377.39" y2="366.88"/><text class="cls-4" transform="translate(513.23 29.58) scale(0.74 1)"><tspan class="cls-5">E</tspan><tspan x="22.31" y="0">xpe</tspan><tspan class="cls-6" x="83.59" y="0">r</tspan><tspan class="cls-7" x="96.76" y="0">ie</tspan><tspan class="cls-8" x="126.12" y="0">n</tspan><tspan class="cls-9" x="149.18" y="0">c</tspan><tspan x="167.86" y="0">e</tspan></text><text class="cls-4" transform="translate(0.5 292.77) scale(0.74 1)"><tspan class="cls-10">E</tspan><tspan x="22.58" y="0">ducation</tspan></text><text class="cls-11" transform="translate(4.67 385.64) scale(0.74 1)"><tspan class="cls-12">K</tspan><tspan x="10.33" y="0">gs. </tspan><tspan class="cls-13" x="34.92" y="0">L</tspan><tspan class="cls-14" x="43.22" y="0">y</tspan><tspan class="cls-15" x="51.25" y="0">n</tspan><tspan x="61.5" y="0">g</tspan><tspan class="cls-16" x="71.87" y="0">b</tspan><tspan x="81.91" y="0">y Jun 09 - Dec 10</tspan></text><text class="cls-11" transform="translate(180.63 385.64) scale(0.74 1)"><tspan class="cls-12">K</tspan><tspan x="10.33" y="0">gs. </tspan><tspan class="cls-13" x="34.92" y="0">L</tspan><tspan class="cls-14" x="43.22" y="0">y</tspan><tspan class="cls-15" x="51.25" y="0">n</tspan><tspan x="61.5" y="0">g</tspan><tspan class="cls-16" x="71.87" y="0">b</tspan><tspan x="81.91" y="0">y Dec 18 - N</tspan><tspan class="cls-16" x="168.8" y="0">o</tspan><tspan x="178" y="0">w</tspan></text><text class="cls-17" transform="translate(4.67 421.97) scale(0.74 1)">Me<tspan class="cls-18" x="25.98" y="0">r</tspan><tspan class="cls-19" x="32.42" y="0">k</tspan><tspan x="41.9" y="0">o</tspan><tspan class="cls-20" x="52.27" y="0">n</tspan><tspan x="63.55" y="0">om</tspan></text><text class="cls-17" transform="translate(180.63 421.97) scale(0.74 1)">Mu<tspan class="cls-21" x="27.18" y="0">l</tspan><tspan x="31.43" y="0">ti</tspan><tspan class="cls-20" x="42.46" y="0">m</tspan><tspan x="60.27" y="0">edia Design</tspan></text></g><text class="cls-17" transform="translate(4.67 357.37) scale(0.74 1)"><tspan class="cls-22">K</tspan><tspan class="cls-20" x="11.59" y="0">n</tspan><tspan x="22.87" y="0">o</tspan><tspan class="cls-23" x="33.24" y="0">r</tspan><tspan x="39.6" y="0">d</tspan></text><text class="cls-17" transform="translate(179.19 357.37) scale(0.74 1)"><tspan class="cls-24">C</tspan><tspan x="11.58" y="0">openh</tspan><tspan class="cls-25" x="65.74" y="0">a</tspan><tspan x="75.51" y="0">gen Busi</tspan><tspan class="cls-25" x="148.59" y="0">n</tspan><tspan x="159.87" y="0">ess </tspan><tspan class="cls-26" x="190.14" y="0">A</tspan><tspan x="201.85" y="0">c</tspan><tspan class="cls-20" x="211.14" y="0">a</tspan><tspan x="220.91" y="0">de</tspan><tspan class="cls-27" x="242.18" y="0">m</tspan><tspan class="cls-28" x="259.82" y="0">y</tspan></text><line class="cls-3" x1="3.62" y1="366.94" x2="156.75" y2="366.82"/><line class="cls-3" x1="514.68" y1="99.8" x2="656.97" y2="99.68"/><text class="cls-11" transform="translate(514.68 118.35) scale(0.74 1)">Hellerup Jun <tspan class="cls-29" x="100.6" y="0">0</tspan><tspan class="cls-30" x="110.46" y="0">7 - Mar 12</tspan></text><text class="cls-17" transform="translate(513.23 154.68) scale(0.74 1)">S<tspan class="cls-31" x="10.19" y="0">t</tspan><tspan x="16.53" y="0">o</tspan><tspan class="cls-32" x="26.9" y="0">r</tspan><tspan x="33.25" y="0">eman</tspan><tspan class="cls-33" x="82.05" y="0">a</tspan><tspan x="91.82" y="0">ger &amp; Bu</tspan><tspan class="cls-34" x="163.13" y="0">y</tspan><tspan x="171.71" y="0">er</tspan></text><text class="cls-17" transform="translate(513.23 87.73) scale(0.74 1)">St<tspan class="cls-32" x="16.85" y="0">r</tspan><tspan class="cls-35" x="23.2" y="0">om S</tspan><tspan class="cls-31" x="65.86" y="0">t</tspan><tspan x="72.2" y="0">o</tspan><tspan class="cls-23" x="82.57" y="0">r</tspan><tspan class="cls-36" x="88.93" y="0">e</tspan></text><line class="cls-3" x1="703.41" y1="99.74" x2="845.7" y2="99.63"/><text class="cls-11" transform="translate(703.41 118.35) scale(0.74 1)"><tspan class="cls-12">K</tspan><tspan x="10.33" y="0">øbenh</tspan><tspan class="cls-37" x="59.57" y="0">a</tspan><tspan x="68.28" y="0">vn </tspan><tspan class="cls-38" x="90.45" y="0">F</tspan><tspan x="99.76" y="0">eb 13- Jul 18</tspan></text><text class="cls-17" transform="translate(701.96 154.68) scale(0.74 1)">S<tspan class="cls-31" x="10.19" y="0">t</tspan><tspan x="16.53" y="0">o</tspan><tspan class="cls-32" x="26.9" y="0">r</tspan><tspan x="33.25" y="0">eman</tspan><tspan class="cls-33" x="82.05" y="0">a</tspan><tspan x="91.82" y="0">ger &amp; Bu</tspan><tspan class="cls-34" x="163.13" y="0">y</tspan><tspan x="171.71" y="0">er</tspan></text><text class="cls-17" transform="translate(701.96 87.73) scale(0.74 1)"><tspan class="cls-39">O</tspan><tspan x="14.17" y="0">-Z</tspan></text></g></g></svg>