<svg xmlns="http://www.w3.org/2000/svg" viewBox="0 0 330.42 330.47"><defs><style>.cls-1{fill:#8f6f61;}.cls-2{fill:#fff;}.cls-3,.cls-4{fill:none;}.cls-3,.cls-5{stroke:#2a1000;stroke-width:3px;}.cls-3,.cls-4,.cls-5{stroke-linejoin:round;}.cls-4{stroke:#250a04;stroke-width:6px;}.cls-5{fill:#2a1000;}</style></defs><title>tlf-logo</title><g id="Layer_2" data-name="Layer 2"><g id="Layer_1-2" data-name="Layer 1"><path class="cls-1" d="M320.42,165.23c-.27,64.34-41,123.72-101.71,145.87-61.37,22.4-131.4,3.43-173.24-46.64S-1.73,140.58,32.14,84.74C65.78,29.28,132.4-.08,196.05,12.94,259,25.82,308.39,77.57,318.57,141a158,158,0,0,1,1.85,24.28c0,6.43,10,6.45,10,0-.29-69-44.13-131.82-109-155.51S81.34,6.67,37.56,59.94C-6.51,113.57-12.58,191.24,23.5,250.77,59.43,310,130.14,340.89,198,327.3c66.5-13.32,119.81-68.77,130.28-135.81a175,175,0,0,0,2.1-26.26C330.45,158.8,320.45,158.79,320.42,165.23Z"/><ellipse class="cls-2" cx="165.06" cy="166.29" rx="137.7" ry="135.15"/><path class="cls-1" d="M300.25,166.29C300,221.85,264,272.05,211.74,290.83,158.65,309.91,97.56,294,61,251,24.8,208.38,19.89,145.71,49.11,98c29.5-48.15,87.83-72.82,143-61.74C246,47.11,289.5,90.61,298.54,145a132.82,132.82,0,0,1,1.71,21.26c0,3.22,5,3.22,5,0-.29-57.9-37.82-109.83-92.18-129.36-54.82-19.7-118.49-3-156,41.62S14.45,188.07,45.13,237.63s90.65,74.77,147.67,63.61c56.14-11,101.91-56.9,110.78-113.7a141.35,141.35,0,0,0,1.67-21.25C305.27,163.07,300.27,163.07,300.25,166.29Z"/><path class="cls-3" d="M165.76,72.22a.71.71,0,0,1,0-1.42"/><path class="cls-4" d="M214.66,274.51H117.28a12.68,12.68,0,0,1-12.6-12.69V70.76c0-7,5.67-12.69,11-12.69h97.39a18.56,18.56,0,0,1,7.6,1.29,10.66,10.66,0,0,1,6.57,9.9v184.1C227.26,268.8,221.59,274.51,214.66,274.51Z"/><circle class="cls-5" cx="169.96" cy="255.43" r="7.93"/><rect class="cls-5" x="109.29" y="94.38" width="117.97" height="141.69"/><path class="cls-3" d="M180.18,82.14H150.64c-3.57,0-3.56-2.34,0-2.34h29.54C183.75,79.8,183.74,82.14,180.18,82.14Z"/></g></g></svg>